# xmcd CD database file
#
# Track frame offsets:
#	150
#	24580
#	53097
#	69202
#	86665
#	106802
#	131800
#	155090
#	173942
#	197110
#	220125
#	240380
#	254115
#	272237
#	289877
#	310530
#
# Disc length: 4413 seconds
#
# Revision: 0
# Processed by: cddbd v1.5.2PL0 Copyright (c) Steve Scherf et al.
# Submitted via: CDex 1.70beta2
#
DISCID=ea113b10
DTITLE=Camilo Azuquita Argundez  - A Black man from Panama
DYEAR=1995
DGENRE=Salsa
TTITLE0=California 
TTITLE1=Guajiro Bacan 
TTITLE2=El Candado Y La Llave 
TTITLE3=Panama 
TTITLE4=Salsa Na' Ma' 
TTITLE5=Tumba Tumbador 
TTITLE6=Xiomara 
TTITLE7=El Poeta Lloro 
TTITLE8=La Llorona 
TTITLE9=Amor Genuino 
TTITLE10=Yo No Se Nada 
TTITLE11=Salsarengue 
TTITLE12=Azucar Pa' Un Amargao 
TTITLE13=Negro De Sociedad 
TTITLE14=Africa Linda 
TTITLE15=Montmartre 
EXTD=YEAR: 1995
EXTT0=
EXTT1=
EXTT2=
EXTT3=
EXTT4=
EXTT5=
EXTT6=
EXTT7=
EXTT8=
EXTT9=
EXTT10=
EXTT11=
EXTT12=
EXTT13=
EXTT14=
EXTT15=
PLAYORDER=
